<svg xmlns="http://www.w3.org/2000/svg" version="1.1" xmlns:xlink="http://www.w3.org/1999/xlink" xmlns:svgjs="http://svgjs.dev/svgjs" width="2000" height="1397" viewBox="0 0 2000 1397"><g transform="matrix(1,0,0,1,-2.1552986085297334,-2.25322580645161)"><svg viewBox="0 0 355 248" data-background-color="#000001" preserveAspectRatio="xMidYMid meet" height="1397" width="2000" xmlns="http://www.w3.org/2000/svg" xmlns:xlink="http://www.w3.org/1999/xlink"><g id="tight-bounds" transform="matrix(1,0,0,1,0.38256550301403536,0.4000000000000057)"><svg viewBox="0 0 354.23486899397193 247.2" height="247.2" width="354.23486899397193"><g><svg viewBox="0 0 395.52 276.01050195220563" height="247.2" width="354.23486899397193"><g transform="matrix(1,0,0,1,0,205.36542209244718)"><svg viewBox="0 0 395.52 70.64507985975847" height="70.64507985975847" width="395.52"><g id="textblocktransform"><svg viewBox="0 0 395.52 70.64507985975847" height="70.64507985975847" width="395.52" id="textblock"><g><svg viewBox="0 0 395.52 70.64507985975847" height="70.64507985975847" width="395.52"><g transform="matrix(1,0,0,1,0,0)"><svg width="395.52" viewBox="3 -37.85 256.68 45.85" height="70.64507985975847" data-palette-color="#ffffff"><path d="M21.65 0.6L3 0.6 3-4.4 21.15-4.4 21.15-8.45 7.55-8.45 7.55-13 3-13 3-17.95 7.55-17.95 7.55-22.5 26.25-22.5 26.25-17.5 8.05-17.5 8.05-13.5 21.65-13.5 21.65-8.95 26.25-8.95 26.25-3.9 21.65-3.9 21.65 0.6ZM49.95 0.6L35.85 0.6 35.85-3.9 31.3-3.9 31.3-17.95 35.85-17.95 35.85-22.5 49.95-22.5 49.95-17.95 54.55-17.95 54.55-3.9 49.95-3.9 49.95 0.6ZM36.35-17.5L36.35-4.4 49.45-4.4 49.45-17.5 36.35-17.5ZM65.64 0.6L60.59 0.6 60.59-27 65.14-27 65.14-31.55 79.25-31.55 79.25-27 83.84-27 83.84-22 78.75-22 78.75-26.5 65.64-26.5 65.64-17.95 74.75-17.95 74.75-13 65.64-13 65.64 0.6ZM108.64 0.6L94.44 0.6 94.44-3.9 89.94-3.9 89.94-17.5 85.39-17.5 85.39-22.5 89.94-22.5 89.94-31.55 94.94-31.55 94.94-22.5 108.64-22.5 108.64-17.5 94.94-17.5 94.94-4.4 108.14-4.4 108.14-8.95 113.19-8.95 113.19-3.9 108.64-3.9 108.64 0.6ZM123.29 0.6L118.24 0.6 118.24-22.5 132.39-22.5 132.39-17.95 136.39-17.95 136.39-22.5 146.04-22.5 146.04-17.95 150.54-17.95 150.54 0.6 145.54 0.6 145.54-17.5 136.89-17.5 136.89 0.6 131.89 0.6 131.89-17.5 123.29-17.5 123.29 0.6ZM174.74 0.6L160.64 0.6 160.64-3.9 156.09-3.9 156.09-17.95 160.64-17.95 160.64-22.5 174.74-22.5 174.74-17.95 179.34-17.95 179.34-4.4 183.89-4.4 183.89 0.6 178.84 0.6 178.84-3.9 174.74-3.9 174.74 0.6ZM161.14-17.5L161.14-4.4 174.24-4.4 174.24-17.5 161.14-17.5ZM192.99 0.6L187.94 0.6 187.94-4.4 192.49-4.4 192.49-8.95 196.99-8.95 196.99-13 192.49-13 192.49-17.5 187.94-17.5 187.94-22.5 192.99-22.5 192.99-17.95 197.49-17.95 197.49-13.5 201.59-13.5 201.59-17.95 206.09-17.95 206.09-22.5 211.19-22.5 211.19-17.5 206.59-17.5 206.59-13 202.09-13 202.09-8.95 206.59-8.95 206.59-4.4 211.19-4.4 211.19 0.6 206.09 0.6 206.09-3.9 201.59-3.9 201.59-8.45 197.49-8.45 197.49-3.9 192.99-3.9 192.99 0.6ZM231.38 8L226.28 8 226.28-1.2 221.78-1.2 221.78-10.2 217.23-10.2 217.23-19.75 221.78-19.75 221.78-28.85 226.28-28.85 226.28-37.85 231.38-37.85 231.38-28.35 226.78-28.35 226.78-19.25 222.28-19.25 222.28-10.7 226.78-10.7 226.78-1.55 231.38-1.55 231.38 8ZM240.98 0.6L235.93 0.6 235.93-22.5 240.98-22.5 240.98 0.6ZM240.98-26.5L235.93-26.5 235.93-31.55 240.98-31.55 240.98-26.5ZM250.58 8L245.53 8 245.53-1.55 250.08-1.55 250.08-10.7 254.63-10.7 254.63-19.25 250.08-19.25 250.08-28.35 245.53-28.35 245.53-37.85 250.58-37.85 250.58-28.85 255.13-28.85 255.13-19.75 259.68-19.75 259.68-10.2 255.13-10.2 255.13-1.2 250.58-1.2 250.58 8Z" opacity="1" transform="matrix(1,0,0,1,0,0)" fill="#000000" class="wordmark-text-0" data-fill-palette-color="primary" id="text-0"></path></svg></g></svg></g></svg></g></svg></g><g transform="matrix(1,0,0,1,111.75489682674875,0)"><svg viewBox="0 0 172.01020634650249 172.01020634650249" height="172.01020634650249" width="172.01020634650249"><g><svg></svg></g><g id="icon-0"><svg viewBox="0 0 172.01020634650249 172.01020634650249" height="172.01020634650249" width="172.01020634650249"><g><path d="M0 86.005c0-47.499 38.506-86.005 86.005-86.005 47.499 0 86.005 38.506 86.005 86.005 0 47.499-38.506 86.005-86.005 86.005-47.499 0-86.005-38.506-86.005-86.005zM86.005 165.639c43.981 0 79.634-35.653 79.634-79.634 0-43.981-35.653-79.634-79.634-79.634-43.981 0-79.634 35.653-79.634 79.634 0 43.981 35.653 79.634 79.634 79.634z" data-fill-palette-color="tertiary" fill="#000000" stroke="transparent"></path></g><g transform="matrix(1,0,0,1,36.23410826494184,69.46199300178128)"><svg viewBox="0 0 99.54198981661881 33.086220342939924" height="33.086220342939924" width="99.54198981661881"><g><svg xmlns="http://www.w3.org/2000/svg" xmlns:xlink="http://www.w3.org/1999/xlink" version="1.1" x="0" y="0" viewBox="2.200314274283426 31.824 94.79983106595472 31.51" enable-background="new 0 0 100 100" xml:space="preserve" height="33.086220342939924" width="99.54198981661881" class="icon-dxe-0" data-fill-palette-color="accent" id="dxe-0"><g fill="#ffffff" data-fill-palette-color="accent"><g fill="#ffffff" data-fill-palette-color="accent"><g fill="#ffffff" data-fill-palette-color="accent"><path d="M18.307 50.777A0.77 0.77 0 0 1 17.751 50.547 0.774 0.774 0 0 1 17.751 49.427C18.045 49.125 18.569 49.125 18.871 49.419A0.804 0.804 0 0 1 18.871 50.547 0.77 0.77 0 0 1 18.307 50.777" fill="#000000" data-fill-palette-color="accent"></path></g><g fill="#ffffff" data-fill-palette-color="accent"><path d="M5.59 61.842A0.792 0.792 0 1 1 7.107 61.381 0.79 0.79 0 0 1 6.583 62.374 0.8 0.8 0 0 1 5.59 61.842M8.752 60.603A0.79 0.79 0 0 1 8.982 59.507 0.8 0.8 0 0 1 10.086 59.737 0.79 0.79 0 0 1 9.848 60.833 0.794 0.794 0 0 1 8.752 60.603M11.484 58.585A0.793 0.793 0 0 1 11.5 57.457V57.465A0.79 0.79 0 0 1 12.62 57.473 0.8 0.8 0 0 1 12.612 58.601 0.8 0.8 0 0 1 12.056 58.824 0.8 0.8 0 0 1 11.484 58.585M13.827 56.115A0.786 0.786 0 0 1 13.708 55.003 0.785 0.785 0 0 1 14.82 54.884C15.162 55.154 15.217 55.654 14.939 55.996A0.76 0.76 0 0 1 14.319 56.29 0.77 0.77 0 0 1 13.827 56.115M15.908 53.43A0.793 0.793 0 0 1 15.718 52.318 0.797 0.797 0 0 1 16.83 52.135 0.797 0.797 0 0 1 17.013 53.239 0.8 0.8 0 0 1 16.361 53.573 0.8 0.8 0 0 1 15.908 53.43" fill="#000000" data-fill-palette-color="accent"></path></g><g fill="#ffffff" data-fill-palette-color="accent"><path d="M2.993 62.89A0.8 0.8 0 0 1 2.429 62.66 0.8 0.8 0 0 1 2.429 61.54 0.823 0.823 0 0 1 3.557 61.54C3.7 61.683 3.787 61.889 3.787 62.104A0.8 0.8 0 0 1 3.557 62.66 0.8 0.8 0 0 1 2.993 62.89" fill="#000000" data-fill-palette-color="accent"></path></g></g><g fill="#ffffff" data-fill-palette-color="accent"><g fill="#ffffff" data-fill-palette-color="accent"><path d="M80.891 50.324A0.8 0.8 0 0 1 80.327 48.966 0.823 0.823 0 0 1 81.455 48.966C81.598 49.109 81.685 49.315 81.685 49.53A0.77 0.77 0 0 1 81.447 50.086 0.77 0.77 0 0 1 80.891 50.324" fill="#000000" data-fill-palette-color="accent"></path></g><g fill="#ffffff" data-fill-palette-color="accent"><path d="M82.377 47.377A0.79 0.79 0 0 1 82.186 46.273 0.8 0.8 0 0 1 83.298 46.083 0.8 0.8 0 0 1 83.481 47.195 0.8 0.8 0 0 1 82.838 47.529 0.77 0.77 0 0 1 82.377 47.377M84.379 44.629A0.785 0.785 0 0 1 84.26 43.517 0.804 0.804 0 0 1 85.38 43.39 0.803 0.803 0 0 1 85.499 44.51 0.78 0.78 0 0 1 84.88 44.804 0.8 0.8 0 0 1 84.379 44.629M86.579 42.04A0.8 0.8 0 0 1 86.595 40.912 0.79 0.79 0 0 1 87.715 40.928 0.79 0.79 0 0 1 87.707 42.048H87.699A0.78 0.78 0 0 1 87.151 42.278 0.8 0.8 0 0 1 86.579 42.04M89.12 39.776A0.79 0.79 0 0 1 89.35 38.68 0.793 0.793 0 0 1 90.216 40.006 0.797 0.797 0 0 1 89.12 39.776M92.091 38.131A0.792 0.792 0 1 1 93.608 37.671 0.8 0.8 0 0 1 93.084 38.664C93.004 38.68 92.925 38.696 92.854 38.696A0.8 0.8 0 0 1 92.091 38.131" fill="#000000" data-fill-palette-color="accent"></path></g><g fill="#ffffff" data-fill-palette-color="accent"><path d="M96.206 38.203A0.77 0.77 0 0 1 95.65 37.973 0.775 0.775 0 0 1 95.65 36.853 0.82 0.82 0 0 1 96.77 36.845C96.921 36.996 97 37.202 97 37.409A0.77 0.77 0 0 1 96.77 37.973 0.8 0.8 0 0 1 96.206 38.203" fill="#000000" data-fill-palette-color="accent"></path></g></g><g fill="#ffffff" data-fill-palette-color="accent"><rect x="2.306" y="48.419" width="93.903" height="0.794" fill="#000000" data-fill-palette-color="accent"></rect></g><g fill="#ffffff" data-fill-palette-color="accent"><path d="M26.254 39.317C22.463 41.618 19.785 45.419 17.491 48.816H20.388C22.549 45.735 24.682 43.144 27.254 41.496A7.2 7.2 0 0 1 26.254 39.317" fill="#000000" data-fill-palette-color="accent"></path><path d="M80.005 48.817C76.461 54.619 71.67 60.909 65.467 60.909L64.786 60.933C58.373 60.585 54.777 55.326 50.978 49.768 47.997 45.408 44.937 40.953 40.394 38.702A7.2 7.2 0 0 1 39.578 40.969C43.451 42.993 46.178 46.969 49.011 51.113 53.119 57.121 57.366 63.334 65.467 63.334L66.658 63.291V63.23C73.732 62.506 78.843 55.425 82.55 49.214A1.2 1.2 0 0 0 82.696 48.816z" fill="#000000" data-fill-palette-color="accent"></path></g><path d="M33.254 31.824A5.595 5.595 0 0 0 27.666 37.412 5.595 5.595 0 0 0 33.254 43 5.595 5.595 0 0 0 38.842 37.412 5.595 5.595 0 0 0 33.254 31.824" fill="#000000" data-fill-palette-color="accent"></path></g></svg></g></svg></g></svg></g></svg></g><g></g></svg></g><defs></defs></svg><rect width="354.23486899397193" height="247.2" fill="none" stroke="none" visibility="hidden"></rect></g></svg></g></svg>